<svg xmlns="http://www.w3.org/2000/svg" viewBox="0 0 24 24" role="presentation" focusable="false" class="ccl-2608038983f5b413 ccl-24025c233c77af94 ccl-728d4bf1d552a771"><path fill="#00ccbc" d="M12.398 5.15726C12.2216 5.1443 12.0471 5.13977 11.875 5.14386C10.6144 5.17385 9.48451 5.65355 8.65412 6.41061L10.4866 7.80013L12.892 5.21976C12.7306 5.1915 12.5659 5.16958 12.398 5.15726Z"></path><path fill="#00ccbc" d="M15.9781 7.20303C15.5278 6.54023 14.9003 5.99248 14.1468 5.62824L12.4005 7.50214C12.9948 7.5854 13.5231 7.79839 13.8689 8.15616C14.0962 8.39129 14.2488 8.66366 14.3507 8.9497L15.9781 7.20303Z"></path><path fill="#00ccbc" d="M9.67717 8.66844L7.88956 7.31352C7.47868 7.96229 7.24271 8.71689 7.24271 9.52448C7.24271 10.1008 7.3277 10.5913 7.47087 11.0356L9.67717 8.66844Z"></path><path fill="#00ccbc" d="M16.6808 10.5066C16.8214 9.76698 16.7596 9.03365 16.5412 8.35594C14.4496 10.6008 12.3589 12.8438 10.2658 15.0893L10.2803 15.11C10.4202 15.3095 10.5603 15.5093 10.6893 15.7288C11.4274 16.9853 11.7556 18.101 11.8993 18.7589C11.9131 18.8229 11.9588 18.8571 12.0267 18.8571C12.0932 18.8571 12.1366 18.8251 12.1517 18.7678C12.3443 18.0297 12.7218 16.7164 13.3276 15.721C13.7977 14.9488 14.3332 14.314 14.8308 13.7241C15.0199 13.4999 15.2036 13.2822 15.3762 13.0658C16.0028 12.2802 16.4864 11.5294 16.6808 10.5066Z"></path><path fill="#00ccbc" d="M12.9393 8.9151C12.7425 8.71148 12.4721 8.57135 12.006 8.57135C11.5486 8.57135 11.2857 8.71084 11.0898 8.9084L11.0655 8.93519C10.8778 9.13805 10.7633 9.42015 10.7633 9.71421C10.7633 10.0158 10.876 10.3097 11.0728 10.5133C11.2696 10.7169 11.54 10.8571 12.006 10.8571C12.437 10.8571 12.676 10.718 12.8689 10.539L12.9721 10.4285C13.1317 10.2302 13.2488 9.9838 13.2488 9.71421C13.2488 9.41262 13.1361 9.11871 12.9393 8.9151Z"></path><path fill="#00ccbc" d="M10.1432 11.2723C9.90757 11.0285 9.75759 10.744 9.65654 10.4464L8.02912 12.193C8.14565 12.3768 8.26482 12.5589 8.39926 12.7388C8.63479 13.054 8.8978 13.3659 9.17021 13.689C9.28936 13.8303 9.41031 13.9737 9.53154 14.1205L11.5813 11.9207C11.0005 11.8329 10.4829 11.6238 10.1432 11.2723Z"></path><path fill="#00ccbc" d="M22 6.76562C22 3.875 20.125 2 17.2344 2H6.76562C3.875 2 2 3.875 2 6.76562V17.2344C2 20.125 3.875 22 6.76562 22H17.2344C20.125 22 22 20.125 22 17.2344V6.76562ZM6 9.52448C6 6.53084 8.61301 4.08308 11.8434 4.00211C12.0588 3.99672 12.2773 4.00156 12.4975 4.01774C16.0819 4.28078 18.5193 7.47382 17.9053 10.7031C17.6673 11.9552 17.0503 12.8988 16.3786 13.741C16.1855 13.9832 15.9881 14.2183 15.7914 14.4527C15.3038 15.0335 14.8199 15.61 14.4126 16.279C13.9348 17.0641 13.5406 18.3407 13.3592 19.0357C13.2114 19.599 12.6549 20 12.0267 20C11.3754 20 10.8078 19.5679 10.6808 18.9833C10.556 18.4114 10.2608 17.4032 9.59586 16.2712C9.21111 15.6165 8.73056 15.0434 8.24006 14.4585C7.94924 14.1117 7.65492 13.7607 7.37499 13.3861C6.62294 12.3796 6 11.1747 6 9.52448Z"></path></svg>
